<svg xmlns="http://www.w3.org/2000/svg" xmlns:xlink="http://www.w3.org/1999/xlink" width="500" zoomAndPan="magnify" viewBox="0 0 375 374.999991" height="500" preserveAspectRatio="xMidYMid meet" version="1.0"><defs><g/></defs><rect x="-37.5" width="450" fill="#ffffff" y="-37.499999" height="449.999989" fill-opacity="1"/><rect x="-37.5" width="450" fill="#272334" y="-37.499999" height="449.999989" fill-opacity="1"/><g fill="#dbf9f4" fill-opacity="1"><g transform="translate(68.964845, 335.489081)"><g><path d="M 94.4375 -118.921875 C 94.164062 -110.234375 93.898438 -99.960938 93.640625 -88.109375 C 93.378906 -78.097656 93.179688 -65.78125 93.046875 -51.15625 C 92.910156 -36.539062 92.84375 -20.015625 92.84375 -1.578125 C 91 -11.054688 86.390625 -20.007812 79.015625 -28.4375 C 71.640625 -36.875 63.472656 -44.253906 54.515625 -50.578125 C 45.566406 -56.898438 36.679688 -61.96875 27.859375 -65.78125 C 19.035156 -69.601562 12.117188 -71.515625 7.109375 -71.515625 L 7.109375 -128.8125 C 10.535156 -118.007812 14.945312 -109.507812 20.34375 -103.3125 C 25.75 -97.125 30.820312 -92.515625 35.5625 -89.484375 C 40.300781 -86.460938 44.316406 -84.617188 47.609375 -83.953125 C 50.898438 -83.296875 52.285156 -83.101562 51.765625 -83.375 C 55.453125 -84.6875 58.410156 -86.59375 60.640625 -89.09375 C 62.878906 -91.59375 64.660156 -94.03125 65.984375 -96.40625 C 67.296875 -99.300781 68.21875 -102.332031 68.75 -105.5 C 68.488281 -121.820312 68.359375 -137.097656 68.359375 -151.328125 C 68.359375 -157.390625 68.289062 -163.515625 68.15625 -169.703125 C 68.019531 -175.890625 67.953125 -181.75 67.953125 -187.28125 C 67.953125 -192.8125 67.953125 -197.75 67.953125 -202.09375 C 67.953125 -206.445312 67.953125 -209.9375 67.953125 -212.5625 C 65.585938 -215.726562 63.285156 -217.441406 61.046875 -217.703125 C 58.804688 -217.960938 56.566406 -217.171875 54.328125 -215.328125 C 52.085938 -213.484375 49.71875 -211.046875 47.21875 -208.015625 C 44.71875 -204.992188 41.882812 -201.769531 38.71875 -198.34375 C 39.769531 -204.132812 41.476562 -209.140625 43.84375 -213.359375 C 46.21875 -217.578125 49.050781 -221.195312 52.34375 -224.21875 C 55.644531 -227.25 59.269531 -229.816406 63.21875 -231.921875 C 67.164062 -234.035156 71.117188 -235.878906 75.078125 -237.453125 C 83.234375 -240.878906 91.988281 -246.28125 101.34375 -253.65625 C 110.695312 -261.03125 118.398438 -268.671875 124.453125 -276.578125 C 123.671875 -271.566406 121.894531 -266.625 119.125 -261.75 C 116.363281 -256.882812 113.398438 -252.410156 110.234375 -248.328125 C 107.078125 -244.242188 104.113281 -240.816406 101.34375 -238.046875 C 98.582031 -235.285156 96.804688 -233.773438 96.015625 -233.515625 C 94.960938 -232.984375 94.300781 -232.253906 94.03125 -231.328125 C 93.769531 -230.410156 93.507812 -229.425781 93.25 -228.375 C 92.976562 -227.320312 92.84375 -226.003906 92.84375 -224.421875 C 93.113281 -215.203125 93.378906 -206.25 93.640625 -197.5625 C 93.898438 -190.175781 94.097656 -182.53125 94.234375 -174.625 C 94.367188 -166.726562 94.4375 -160.28125 94.4375 -155.28125 Z M 94.4375 -118.921875 "/></g></g></g><g fill="#dbf9f4" fill-opacity="1"><g transform="translate(179.199663, 335.489081)"><g><path d="M 77.046875 -182.546875 C 78.359375 -182.273438 79.671875 -182.070312 80.984375 -181.9375 C 82.304688 -181.8125 82.96875 -181.878906 82.96875 -182.140625 C 87.707031 -185.035156 90.472656 -187.472656 91.265625 -189.453125 C 92.054688 -191.429688 93.242188 -193.539062 94.828125 -195.78125 C 96.410156 -198.019531 99.4375 -200.519531 103.90625 -203.28125 C 108.382812 -206.050781 116.550781 -209.675781 128.40625 -214.15625 C 123.664062 -211.78125 119.976562 -208.8125 117.34375 -205.25 C 114.707031 -201.695312 112.863281 -197.816406 111.8125 -193.609375 L 111.421875 -100.359375 C 113.523438 -96.671875 115.828125 -93.769531 118.328125 -91.65625 C 120.835938 -89.550781 125.117188 -87.445312 131.171875 -85.34375 C 125.117188 -85.34375 118.992188 -85.273438 112.796875 -85.140625 C 106.609375 -85.015625 101.273438 -86.660156 96.796875 -90.078125 C 93.898438 -92.984375 91.726562 -96.144531 90.28125 -99.5625 C 88.832031 -102.988281 87.910156 -106.875 87.515625 -111.21875 C 87.117188 -115.570312 86.984375 -120.515625 87.109375 -126.046875 C 87.242188 -131.578125 87.3125 -137.765625 87.3125 -144.609375 L 52.15625 -144.609375 L 52.15625 -14.21875 C 49.78125 -26.34375 46.945312 -36.679688 43.65625 -45.234375 C 40.363281 -53.796875 36.742188 -60.710938 32.796875 -65.984375 C 28.847656 -71.253906 24.695312 -75.203125 20.34375 -77.828125 C 16 -80.460938 11.457031 -82.046875 6.71875 -82.578125 C 12.769531 -87.316406 17.3125 -92.320312 20.34375 -97.59375 C 23.375 -102.863281 25.484375 -107.601562 26.671875 -111.8125 C 27.859375 -116.03125 28.382812 -119.390625 28.25 -121.890625 C 28.113281 -124.390625 27.914062 -125.378906 27.65625 -124.859375 C 27.914062 -137.492188 28.179688 -149.476562 28.453125 -160.8125 C 28.710938 -170.550781 28.90625 -180.296875 29.03125 -190.046875 C 29.164062 -199.796875 29.234375 -207.300781 29.234375 -212.5625 C 26.867188 -215.726562 24.566406 -217.707031 22.328125 -218.5 C 20.085938 -219.289062 17.847656 -219.09375 15.609375 -217.90625 C 13.367188 -216.71875 10.992188 -214.875 8.484375 -212.375 C 5.984375 -209.875 3.15625 -206.910156 0 -203.484375 C 1.050781 -209.273438 2.757812 -214.015625 5.125 -217.703125 C 7.5 -221.390625 10.332031 -224.414062 13.625 -226.78125 C 16.914062 -229.15625 20.535156 -231.132812 24.484375 -232.71875 C 28.441406 -234.300781 32.394531 -235.878906 36.34375 -237.453125 C 44.507812 -240.878906 52.804688 -246.28125 61.234375 -253.65625 C 69.671875 -261.03125 76.914062 -268.671875 82.96875 -276.578125 C 82.175781 -271.566406 80.53125 -266.753906 78.03125 -262.140625 C 75.53125 -257.535156 72.894531 -253.457031 70.125 -249.90625 C 67.363281 -246.351562 64.726562 -243.390625 62.21875 -241.015625 C 59.71875 -238.640625 58.078125 -237.320312 57.296875 -237.0625 C 56.234375 -236.539062 55.503906 -235.550781 55.109375 -234.09375 C 54.722656 -232.644531 54.265625 -231.265625 53.734375 -229.953125 C 53.203125 -228.109375 52.804688 -226.265625 52.546875 -224.421875 C 52.285156 -216.253906 52.15625 -208.222656 52.15625 -200.328125 L 52.15625 -160.8125 L 87.3125 -160.8125 L 86.921875 -172.265625 C 85.078125 -172.003906 83.101562 -172.132812 81 -172.65625 C 79.15625 -173.1875 77.113281 -173.78125 74.875 -174.4375 C 72.632812 -175.09375 70.460938 -176.34375 68.359375 -178.1875 C 66.242188 -179.769531 64.660156 -180.957031 63.609375 -181.75 C 62.554688 -182.539062 61.703125 -183.195312 61.046875 -183.71875 C 60.390625 -184.25 59.796875 -184.773438 59.265625 -185.296875 C 58.734375 -185.828125 57.941406 -186.753906 56.890625 -188.078125 C 58.734375 -187.285156 60.578125 -186.625 62.421875 -186.09375 C 64.265625 -185.570312 65.847656 -185.046875 67.171875 -184.515625 C 68.753906 -183.984375 70.203125 -183.585938 71.515625 -183.328125 Z M 77.046875 -182.546875 "/></g></g></g></svg>